<?xml version="1.0" standalone="no"?>
<svg version="1.0" xmlns="http://www.w3.org/2000/svg"
 width="512.000000pt" height="512.000000pt" viewBox="0 0 512.000000 512.000000"
 preserveAspectRatio="xMidYMid meet">
<g transform="translate(0.000000,512.000000) scale(0.100000,-0.100000)"
fill="#2563EB" stroke="none">
<path d="M2005 5109 c-784 -50 -1273 -228 -1559 -569 -86 -103 -119 -154 -182
-280 -123 -245 -202 -577 -245 -1020 -17 -178 -23 -970 -10 -1193 89 -1477
561 -1949 2038 -2038 223 -13 1015 -7 1193 10 775 74 1213 260 1491 633 200
268 305 611 366 1188 25 241 25 1199 0 1440 -35 335 -78 554 -149 760 -244
709 -750 1000 -1863 1070 -185 12 -889 11 -1080 -1z m253 -1334 c69 -21 148
-87 192 -160 34 -58 35 -62 35 -165 0 -98 -2 -109 -30 -158 -40 -73 -121 -145
-193 -172 -121 -46 -263 -10 -356 90 -60 64 -88 127 -94 212 -8 120 34 221
125 295 83 68 209 91 321 58z m854 -13 c60 -26 137 -102 168 -167 35 -69 36
-216 3 -287 -30 -66 -105 -143 -172 -175 -48 -24 -68 -28 -141 -28 -73 0 -93
4 -141 28 -63 31 -135 102 -171 168 -20 38 -23 58 -23 149 0 103 1 107 35 164
43 73 113 133 182 158 71 25 193 20 260 -10z m-1420 -554 c70 -37 121 -92 156
-168 37 -79 37 -202 1 -280 -32 -69 -99 -139 -163 -170 -60 -28 -172 -38 -245
-20 -99 24 -193 116 -230 227 -26 79 -26 127 0 206 70 209 295 304 481 205z
m1968 31 c110 -25 210 -120 249 -236 27 -79 26 -126 -1 -210 -18 -57 -32 -79
-88 -135 -55 -55 -76 -69 -125 -83 -79 -23 -194 -17 -258 14 -64 31 -135 104
-166 171 -36 78 -36 201 1 280 73 157 227 236 388 199z m-910 -505 c90 -43
136 -87 322 -307 89 -106 214 -246 278 -312 132 -136 233 -258 245 -295 4 -14
18 -43 31 -65 19 -34 23 -57 26 -146 l3 -105 -43 -86 c-48 -98 -103 -154 -192
-196 -48 -23 -67 -26 -150 -25 -52 0 -149 8 -215 17 -224 31 -476 41 -682 28
-104 -6 -242 -19 -308 -28 -66 -9 -163 -17 -215 -17 -83 -1 -102 2 -150 25
-87 41 -144 98 -190 191 -42 82 -42 82 -38 182 3 85 8 110 33 165 56 124 101
185 235 325 75 77 194 210 265 295 290 346 357 392 570 387 99 -2 116 -5 175
-33z"/>
</g>
</svg>